<svg width="24" height="24" viewBox="0 0 24 24" fill="none" xmlns="http://www.w3.org/2000/svg">
<path d="M6.69995 9.25998L11.9999 12.33L17.2599 9.27998" stroke="white" stroke-width="1.5" stroke-linecap="round" stroke-linejoin="round"/>
<path d="M11.9999 17.77V12.32" stroke="white" stroke-width="1.5" stroke-linecap="round" stroke-linejoin="round"/>
<path d="M10.7599 6.28998L7.55994 8.06998C6.83994 8.46998 6.23993 9.47998 6.23993 10.31V13.7C6.23993 14.53 6.82994 15.54 7.55994 15.94L10.7599 17.72C11.4399 18.1 12.5599 18.1 13.2499 17.72L16.45 15.94C17.17 15.54 17.7699 14.53 17.7699 13.7V10.3C17.7699 9.46998 17.18 8.45998 16.45 8.05998L13.2499 6.27998C12.5599 5.89998 11.4399 5.89998 10.7599 6.28998Z" stroke="white" stroke-width="1.5" stroke-linecap="round" stroke-linejoin="round"/>
<path d="M21.9999 15C21.9999 18.87 18.8699 22 14.9999 22L16.0499 20.25" stroke="white" stroke-width="1.5" stroke-linecap="round" stroke-linejoin="round"/>
<path d="M1.99994 8.99997C1.99994 5.12997 5.12994 1.99997 8.99994 1.99997L7.94995 3.74997" stroke="white" stroke-width="1.5" stroke-linecap="round" stroke-linejoin="round"/>
</svg>
