<svg width="32" height="32" viewBox="0 0 32 32" fill="none" xmlns="http://www.w3.org/2000/svg">
<path d="M16.7377 5.26255C18.4523 3.01095 20.8359 2.99997 20.8359 2.99997C20.8359 2.99997 21.1905 5.11686 19.4871 7.1561C17.6684 9.33356 15.6012 8.97726 15.6012 8.97726C15.6012 8.97726 15.213 7.26476 16.7377 5.26255ZM15.8192 10.4601C16.7013 10.4601 18.3384 9.25207 20.4692 9.25207C24.1371 9.25207 25.58 11.8525 25.58 11.8525C25.58 11.8525 22.7579 13.2901 22.7579 16.7785C22.7579 20.7137 26.2735 22.0699 26.2735 22.0699C26.2735 22.0699 23.816 28.9618 20.4965 28.9618C18.9719 28.9618 17.7866 27.9381 16.1802 27.9381C14.5431 27.9381 12.9186 29 11.8605 29C8.82936 29.0001 4.99994 22.4624 4.99994 17.2072C4.99994 12.0368 8.24129 9.32451 11.2816 9.32451C13.258 9.32451 14.7917 10.4601 15.8192 10.4601Z" fill="black"/>
</svg>
