<svg width="24" height="24" viewBox="0 0 24 24" fill="none" xmlns="http://www.w3.org/2000/svg">
<path d="M21.9999 6.49997H15.9999" stroke="#1C2431" stroke-width="1.5" stroke-miterlimit="10" stroke-linecap="round" stroke-linejoin="round"/>
<path d="M5.99994 6.49997H1.99994" stroke="#1C2431" stroke-width="1.5" stroke-miterlimit="10" stroke-linecap="round" stroke-linejoin="round"/>
<path d="M9.99994 9.99997C11.9329 9.99997 13.4999 8.43297 13.4999 6.49997C13.4999 4.56697 11.9329 2.99997 9.99994 2.99997C8.06694 2.99997 6.49994 4.56697 6.49994 6.49997C6.49994 8.43297 8.06694 9.99997 9.99994 9.99997Z" stroke="#1C2431" stroke-width="1.5" stroke-miterlimit="10" stroke-linecap="round" stroke-linejoin="round"/>
<path d="M21.9999 17.5H17.9999" stroke="#1C2431" stroke-width="1.5" stroke-miterlimit="10" stroke-linecap="round" stroke-linejoin="round"/>
<path d="M7.99994 17.5H1.99994" stroke="#1C2431" stroke-width="1.5" stroke-miterlimit="10" stroke-linecap="round" stroke-linejoin="round"/>
<path d="M13.9999 21C15.9329 21 17.4999 19.433 17.4999 17.5C17.4999 15.567 15.9329 14 13.9999 14C12.0669 14 10.4999 15.567 10.4999 17.5C10.4999 19.433 12.0669 21 13.9999 21Z" stroke="#1C2431" stroke-width="1.5" stroke-miterlimit="10" stroke-linecap="round" stroke-linejoin="round"/>
</svg>
