<svg width="24" height="24" viewBox="0 0 24 24" fill="none" xmlns="http://www.w3.org/2000/svg">
    <path
        d="M20.8299 8.00996L14.2799 2.76996C12.9999 1.74996 10.9999 1.73996 9.72993 2.75996L3.17993 8.00996C2.23993 8.75996 1.66993 10.26 1.86993 11.44L3.12993 18.98C3.41993 20.67 4.98993 22 6.69993 22H17.2999C18.9899 22 20.5899 20.64 20.8799 18.97L22.1399 11.43C22.3199 10.26 21.7499 8.75996 20.8299 8.00996ZM12.7499 18C12.7499 18.41 12.4099 18.75 11.9999 18.75C11.5899 18.75 11.2499 18.41 11.2499 18V15C11.2499 14.59 11.5899 14.25 11.9999 14.25C12.4099 14.25 12.7499 14.59 12.7499 15V18Z"
        fill="#717171" />
</svg>