<svg width="24" height="24" viewBox="0 0 24 24" fill="none" xmlns="http://www.w3.org/2000/svg">
<path d="M12.0195 2.91013C8.70954 2.91013 6.01954 5.60013 6.01954 8.91013V11.8001C6.01954 12.4101 5.75954 13.3401 5.44954 13.8601L4.29954 15.7701C3.58954 16.9501 4.07954 18.2601 5.37954 18.7001C9.68954 20.1401 14.3395 20.1401 18.6495 18.7001C19.8595 18.3001 20.3895 16.8701 19.7295 15.7701L18.5795 13.8601C18.2795 13.3401 18.0195 12.4101 18.0195 11.8001V8.91013C18.0195 5.61013 15.3195 2.91013 12.0195 2.91013Z" stroke="#717171" stroke-width="1.5" stroke-miterlimit="10" stroke-linecap="round"/>
<path d="M13.8699 3.2004C13.5599 3.1104 13.2399 3.0404 12.9099 3.0004C11.9499 2.8804 11.0299 2.9504 10.1699 3.2004C10.4599 2.4604 11.1799 1.9404 12.0199 1.9404C12.8599 1.9404 13.5799 2.4604 13.8699 3.2004Z" stroke="#717171" stroke-width="1.5" stroke-miterlimit="10" stroke-linecap="round" stroke-linejoin="round"/>
<path d="M15.0195 19.0595C15.0195 20.7095 13.6695 22.0595 12.0195 22.0595C11.1995 22.0595 10.4395 21.7195 9.89947 21.1795C9.35947 20.6395 9.01947 19.8795 9.01947 19.0595" stroke="#717171" stroke-width="1.5" stroke-miterlimit="10"/>
</svg>
