<svg width="24" height="24" viewBox="0 0 24 24" fill="none" xmlns="http://www.w3.org/2000/svg">
<path d="M21.1951 2H2.80488C2.36042 2 2 2.36043 2 2.80489V21.1951C2 21.6398 2.36042 22 2.80488 22H21.1951C21.6398 22 22 21.6396 22 21.1951V2.80489C22 2.36043 21.6396 2 21.1951 2ZM20.3902 20.3902H3.60975V3.60999H20.39L20.3902 20.3902Z" fill="white"/>
<path d="M9.74072 5.21664H5.21838V9.73903H9.74072V5.21664Z" fill="white"/>
<path d="M14.2631 9.73904H9.74078V14.2614H14.2631V9.73904Z" fill="white"/>
<path d="M18.7853 14.2612H14.2629V18.7836H18.7853V14.2612Z" fill="white"/>
<path d="M18.7853 5.21664H14.2629V9.73903H18.7853V5.21664Z" fill="white"/>
<path d="M9.74072 14.2612H5.21838V18.7836H9.74072V14.2612Z" fill="white"/>
</svg>
