<svg width="24" height="24" viewBox="0 0 24 24" fill="none" xmlns="http://www.w3.org/2000/svg">
<path d="M13.3839 16.4421C13.5107 16.3158 13.5742 16.1474 13.5742 16C13.5742 15.8316 13.5107 15.6842 13.3839 15.5579C13.1302 15.3053 12.7286 15.3053 12.4749 15.5579L11.6294 16.4L11.6294 7.60001L12.4749 8.44212C12.7286 8.69475 13.1302 8.69475 13.3839 8.44212C13.6376 8.18949 13.6376 7.78949 13.3839 7.53686L11.4392 5.60001C11.1855 5.34738 10.7839 5.34738 10.5302 5.60001L8.58545 7.53686C8.45862 7.66317 8.3952 7.83159 8.3952 7.97896C8.3952 8.14738 8.45862 8.29475 8.58545 8.42107C8.83911 8.6737 9.24074 8.6737 9.49441 8.42107L10.34 7.57896L10.34 16.379L9.49441 15.5369C9.24075 15.2842 8.83911 15.2842 8.58545 15.5369C8.33179 15.7895 8.33179 16.1895 8.58545 16.4421L10.5302 18.379C10.7839 18.6316 11.1855 18.6316 11.4392 18.379L13.3839 16.4421Z" fill="white"/>
<path d="M7 2.27369L7 3.01053C7 3.1579 7.12683 3.28421 7.2748 3.28421L16.6603 3.28421L16.6603 5.13684L14.3774 5.13684C14.2294 5.13684 14.1026 5.26316 14.1026 5.41053L14.1026 6.14737C14.1026 6.29474 14.2294 6.42105 14.3774 6.42105L16.6603 6.42105L16.6603 8.27368L15.2863 8.27368C15.1383 8.27368 15.0115 8.4 15.0115 8.54737L15.0115 9.28421C15.0115 9.43158 15.1383 9.55789 15.2863 9.55789L16.6603 9.55789L16.6603 11.3684L15.2863 11.3684C15.1383 11.3684 15.0115 11.4947 15.0115 11.6421L15.0115 12.3789C15.0115 12.5263 15.1383 12.6526 15.2863 12.6526L16.6603 12.6526L16.6603 14.5053L15.2863 14.5053C15.1383 14.5053 15.0115 14.6316 15.0115 14.7789L15.0115 15.5158C15.0115 15.6632 15.1383 15.7895 15.2863 15.7895L16.6603 15.7895L16.6603 17.6421L14.3774 17.6421C14.2294 17.6421 14.1026 17.7684 14.1026 17.9158L14.1026 18.6526C14.1026 18.8 14.2294 18.9263 14.3774 18.9263L16.6603 18.9263L16.6603 20.7368L7.2748 20.7368C7.12683 20.7368 7 20.8632 7 21.0105L7 21.7263C7 21.8737 7.12683 22 7.2748 22L17.675 22C17.8229 22 17.9498 21.8737 17.9498 21.7263L17.9498 2.27368C17.9498 2.12632 17.8229 2 17.675 2L7.2748 2C7.12683 2 7 2.12632 7 2.27369Z" fill="white"/>
</svg>
