<svg width="393" height="555" viewBox="0 0 393 555" fill="none" xmlns="http://www.w3.org/2000/svg">
<g opacity="0.12">
<rect opacity="0.0344828" x="-34.2538" y="430.913" width="353.911" height="426.26" transform="rotate(-84 -34.2538 430.913)" stroke="white" stroke-width="0.3"/>
<rect opacity="0.0689655" x="-41.9824" y="418.641" width="353.911" height="426.26" transform="rotate(-81 -41.9824 418.641)" stroke="white" stroke-width="0.3"/>
<rect opacity="0.103448" x="-49.0582" y="405.981" width="353.911" height="426.26" transform="rotate(-78 -49.0582 405.981)" stroke="white" stroke-width="0.3"/>
<rect opacity="0.137931" x="-55.4615" y="392.969" width="353.911" height="426.26" transform="rotate(-75 -55.4615 392.969)" stroke="white" stroke-width="0.3"/>
<rect opacity="0.172414" x="-61.1755" y="379.639" width="353.911" height="426.26" transform="rotate(-72 -61.1755 379.639)" stroke="white" stroke-width="0.3"/>
<rect opacity="0.206897" x="-66.1835" y="366.029" width="353.911" height="426.26" transform="rotate(-69 -66.1835 366.029)" stroke="white" stroke-width="0.3"/>
<rect opacity="0.241379" x="-70.4725" y="352.173" width="353.911" height="426.26" transform="rotate(-66 -70.4725 352.173)" stroke="white" stroke-width="0.3"/>
<rect opacity="0.275862" x="-74.0307" y="338.115" width="353.911" height="426.26" transform="rotate(-63 -74.0307 338.115)" stroke="white" stroke-width="0.3"/>
<rect opacity="0.310345" x="-76.8482" y="323.887" width="353.911" height="426.26" transform="rotate(-60 -76.8482 323.887)" stroke="white" stroke-width="0.3"/>
<rect opacity="0.344828" x="-78.9171" y="309.533" width="353.911" height="426.26" transform="rotate(-57 -78.9171 309.533)" stroke="white" stroke-width="0.3"/>
<rect opacity="0.37931" x="-80.2318" y="295.09" width="353.911" height="426.26" transform="rotate(-54 -80.2318 295.09)" stroke="white" stroke-width="0.3"/>
<rect opacity="0.413793" x="-80.789" y="280.598" width="353.911" height="426.26" transform="rotate(-51 -80.789 280.598)" stroke="white" stroke-width="0.3"/>
<rect opacity="0.448276" x="-80.5871" y="266.097" width="353.911" height="426.26" transform="rotate(-48 -80.5871 266.097)" stroke="white" stroke-width="0.3"/>
<rect opacity="0.482759" x="-79.6264" y="251.625" width="353.911" height="426.26" transform="rotate(-45 -79.6264 251.625)" stroke="white" stroke-width="0.3"/>
<rect opacity="0.517241" x="-77.9098" y="237.225" width="353.911" height="426.26" transform="rotate(-42 -77.9098 237.225)" stroke="white" stroke-width="0.3"/>
<rect opacity="0.551724" x="-75.4417" y="222.934" width="353.911" height="426.26" transform="rotate(-39 -75.4417 222.934)" stroke="white" stroke-width="0.3"/>
<rect opacity="0.586207" x="-72.2286" y="208.791" width="353.911" height="426.26" transform="rotate(-36 -72.2286 208.791)" stroke="white" stroke-width="0.3"/>
<rect opacity="0.62069" x="-68.2804" y="194.836" width="353.911" height="426.26" transform="rotate(-33 -68.2804 194.836)" stroke="white" stroke-width="0.3"/>
<rect opacity="0.655172" x="-63.607" y="181.108" width="353.911" height="426.26" transform="rotate(-30 -63.607 181.108)" stroke="white" stroke-width="0.3"/>
<rect opacity="0.689655" x="-58.2217" y="167.641" width="353.911" height="426.26" transform="rotate(-27 -58.2217 167.641)" stroke="white" stroke-width="0.3"/>
<rect opacity="0.724138" x="-52.1389" y="154.474" width="353.911" height="426.26" transform="rotate(-24 -52.1389 154.474)" stroke="white" stroke-width="0.3"/>
<rect opacity="0.758621" x="-45.3753" y="141.646" width="353.911" height="426.26" transform="rotate(-21 -45.3753 141.646)" stroke="white" stroke-width="0.3"/>
<rect opacity="0.793103" x="-37.9498" y="129.189" width="353.911" height="426.26" transform="rotate(-18 -37.9498 129.189)" stroke="white" stroke-width="0.3"/>
<rect opacity="0.827586" x="-29.8822" y="117.138" width="353.911" height="426.26" transform="rotate(-15 -29.8822 117.138)" stroke="white" stroke-width="0.3"/>
<rect opacity="0.862069" x="-21.1949" y="105.524" width="353.911" height="426.26" transform="rotate(-12 -21.1949 105.524)" stroke="white" stroke-width="0.3"/>
<rect opacity="0.896552" x="-11.9119" y="94.3806" width="353.911" height="426.26" transform="rotate(-9 -11.9119 94.3806)" stroke="white" stroke-width="0.3"/>
<rect opacity="0.931035" x="-2.05833" y="83.7399" width="353.911" height="426.26" transform="rotate(-6 -2.05833 83.7399)" stroke="white" stroke-width="0.3"/>
<rect opacity="0.965517" x="8.33832" y="73.6271" width="353.911" height="426.26" transform="rotate(-3 8.33832 73.6271)" stroke="white" stroke-width="0.3"/>
<rect x="19.2501" y="64.0746" width="353.911" height="426.26" stroke="white" stroke-width="0.3"/>
</g>
</svg>
