<svg width="348" height="444" viewBox="0 0 348 444" fill="none" xmlns="http://www.w3.org/2000/svg">
<mask id="mask0_691_3509" style="mask-type:alpha" maskUnits="userSpaceOnUse" x="1" y="0" width="343" height="436">
<path d="M16.7334 30.68C17.4412 13.535 31.5465 -1.52588e-05 48.7061 -1.52588e-05H296.294C313.454 -1.52588e-05 327.559 13.535 328.267 30.68L343.624 402.68C344.375 420.855 329.843 436 311.652 436H33.3484C15.1574 436 0.625216 420.855 1.37558 402.68L16.7334 30.68Z" fill="#0B0908"/>
</mask>
<g mask="url(#mask0_691_3509)">
<g opacity="0.1">
<path d="M2.99998 354.301V102.83H193.431" stroke="white" stroke-linecap="round" stroke-linejoin="round"/>
<path d="M60.5442 385.826C50.7516 290.218 2.99998 102.83 2.99998 102.83C2.99998 102.83 70.3369 252.125 177.101 333.872" stroke="white" stroke-linecap="round" stroke-linejoin="round"/>
<path d="M2.99998 102.83C2.99998 102.83 83.4929 178.689 220.407 209.17" stroke="white" stroke-linecap="round" stroke-linejoin="round"/>
<path d="M185.919 102.83C185.919 102.83 164.69 178.286 203.711 205.159C203.711 205.159 154.444 232.787 160.142 320.048C160.142 320.048 92.893 298.269 58.1079 365.607C58.1079 365.607 35.078 319.33 2.99998 342.191C2.99998 342.191 9.42913 348.864 6.49203 367.56C3.55492 386.266 10.715 392.757 10.715 392.757" stroke="white" stroke-linecap="round" stroke-linejoin="round"/>
<path d="M2.99998 305.458C2.99998 305.458 22.0506 282.712 47.1716 299.973C47.1716 299.973 71.5212 246.219 113.534 273.416C113.534 273.416 110.827 203.761 151.554 188.798C151.554 188.798 126.988 146.12 151.554 102.83" stroke="white" stroke-linecap="round" stroke-linejoin="round"/>
<path d="M2.99998 257.142C2.99998 257.142 17.3201 236.684 37.5211 251.848C37.5211 251.848 47.6115 215.201 77.2736 227.857C77.2736 227.857 68.8074 176.85 107.707 170.235C107.707 170.235 85.2322 132.449 111.7 102.83" stroke="white" stroke-linecap="round" stroke-linejoin="round"/>
<path d="M2.99998 211.247C2.99998 211.247 11.5541 189.085 27.4781 205.704C27.4781 205.704 34.6991 180.201 51.0494 189.315C51.0494 189.315 50.1222 148.868 75.0403 153.214C75.0403 153.214 58.5817 128.113 73.5176 102.83" stroke="white" stroke-linecap="round" stroke-linejoin="round"/>
<path d="M2.99998 173.146C2.99998 173.146 7.99442 162.366 19.33 170.178C19.33 170.178 23.8101 155.827 34.584 162.404C34.584 162.404 33.0749 138.557 49.1342 137.495C49.1342 137.495 39.971 118.76 51.4825 102.83" stroke="white" stroke-linecap="round" stroke-linejoin="round"/>
<path d="M2.99998 147.856C2.99998 147.856 7.22292 141.623 14.0514 147.856C14.0514 147.856 16.7448 135.736 22.1791 140.494C22.1791 140.494 20.1015 124.066 32.3643 126.086C32.3643 126.086 23.6883 113.909 33.9749 102.823" stroke="white" stroke-linecap="round" stroke-linejoin="round"/>
<path d="M2.99998 132.27C2.99998 132.27 4.87459 126.306 9.75397 130.068C9.75397 130.068 10.2751 123.606 14.5928 126.287C14.5928 126.287 14.3288 117.01 20.9068 117.623C20.9068 117.623 14.6266 107.495 21.6039 102.823" stroke="white" stroke-linecap="round" stroke-linejoin="round"/>
<path d="M80.1977 231.839C80.1977 231.839 75.0476 178.679 126.63 178.813" stroke="white" stroke-linecap="round" stroke-linejoin="round"/>
<path d="M129.364 179.985C129.364 179.985 91.9596 206.101 106.124 264.795" stroke="white" stroke-linecap="round" stroke-linejoin="round"/>
<path d="M153.591 102.83C153.591 102.83 144.042 131.406 150.532 156" stroke="white" stroke-linecap="round" stroke-linejoin="round"/>
<path d="M187.138 102.83C187.138 102.83 184.262 114.691 192.065 129.415C199.868 144.139 197.296 149.337 197.296 150.371" stroke="white" stroke-linecap="round" stroke-linejoin="round"/>
</g>
<mask id="mask1_691_3509" style="mask-type:alpha" maskUnits="userSpaceOnUse" x="137" y="241" width="223" height="209">
<g clip-path="url(#clip0_691_3509)">
<g opacity="0.1">
<g opacity="0.1">
<path d="M362.494 269.195V453.621H164.979" stroke="white" stroke-linecap="round" stroke-linejoin="round"/>
<path d="M302.809 246.082C312.966 316.19 362.494 453.619 362.494 453.619C362.494 453.619 292.652 344.132 181.916 284.183" stroke="white" stroke-linecap="round" stroke-linejoin="round"/>
<path d="M362.494 453.62C362.494 453.62 279.007 397.989 137 375.635" stroke="white" stroke-linecap="round" stroke-linejoin="round"/>
<path d="M172.77 453.62C172.77 453.62 194.79 398.283 154.317 378.577C154.317 378.577 205.417 358.315 199.507 294.322C199.507 294.322 269.257 310.294 305.336 260.911C305.336 260.911 329.223 294.848 362.494 278.083C362.494 278.083 355.826 273.19 358.872 259.478C361.919 245.76 354.492 241 354.492 241" stroke="white" stroke-linecap="round" stroke-linejoin="round"/>
<path d="M362.494 305.014C362.494 305.014 342.735 321.695 316.679 309.036C316.679 309.036 291.424 348.457 247.848 328.512C247.848 328.512 250.656 379.594 208.414 390.567C208.414 390.567 233.894 421.865 208.414 453.613" stroke="white" stroke-linecap="round" stroke-linejoin="round"/>
<path d="M362.495 340.447C362.495 340.447 347.642 355.45 326.689 344.33C326.689 344.33 316.231 371.205 285.458 361.923C285.458 361.923 294.239 399.329 253.892 404.181C253.892 404.181 277.203 431.891 249.751 453.613" stroke="white" stroke-linecap="round" stroke-linejoin="round"/>
<path d="M362.495 374.111C362.495 374.111 353.622 390.364 337.106 378.176C337.106 378.176 329.616 396.879 312.658 390.196C312.658 390.196 313.619 419.858 287.774 416.67C287.774 416.67 304.845 435.079 289.354 453.62" stroke="white" stroke-linecap="round" stroke-linejoin="round"/>
<path d="M362.494 402.053C362.494 402.053 357.314 409.958 345.557 404.229C345.557 404.229 340.91 414.753 329.735 409.93C329.735 409.93 331.3 427.418 314.644 428.198C314.644 428.198 324.148 441.937 312.208 453.619" stroke="white" stroke-linecap="round" stroke-linejoin="round"/>
<path d="M362.494 420.596C362.494 420.596 358.114 425.166 351.032 420.596C351.032 420.596 348.238 429.484 342.602 425.995C342.602 425.995 344.757 438.042 332.038 436.561C332.038 436.561 341.036 445.491 330.367 453.621" stroke="white" stroke-linecap="round" stroke-linejoin="round"/>
<path d="M362.494 432.025C362.494 432.025 360.55 436.399 355.489 433.64C355.489 433.64 354.949 438.379 350.47 436.413C350.47 436.413 350.744 443.216 343.921 442.767C343.921 442.767 350.435 450.195 343.198 453.621" stroke="white" stroke-linecap="round" stroke-linejoin="round"/>
<path d="M282.426 359.004C282.426 359.004 287.768 397.99 234.267 397.891" stroke="white" stroke-linecap="round" stroke-linejoin="round"/>
<path d="M231.423 397.034C231.423 397.034 270.218 377.881 255.527 334.838" stroke="white" stroke-linecap="round" stroke-linejoin="round"/>
<path d="M206.294 453.62C206.294 453.62 216.198 432.663 209.467 414.627" stroke="white" stroke-linecap="round" stroke-linejoin="round"/>
<path d="M171.5 453.62C171.5 453.62 174.483 444.922 166.39 434.124C158.297 423.326 160.964 419.514 160.964 418.756" stroke="white" stroke-linecap="round" stroke-linejoin="round"/>
</g>
<path d="M274.943 466.817C274.943 466.817 274.234 418.733 295.467 388.418C295.467 388.418 242.086 391.205 206.056 424.813C206.056 424.813 185.672 443.72 179.804 452.502" stroke="white" stroke-linecap="round" stroke-linejoin="round"/>
<path d="M239.797 310.244C277.308 338.853 295.467 388.419 295.467 388.419C295.467 388.419 330.233 354.193 327.426 316.219" stroke="white" stroke-linecap="round" stroke-linejoin="round"/>
<path d="M295.467 388.418C295.467 388.418 353.046 440.146 368.495 466.221" stroke="white" stroke-linecap="round" stroke-linejoin="round"/>
<path d="M320.02 352.627C306.319 360.083 278.066 354.003 278.066 354.003C274.353 386.431 249.217 398.893 249.217 398.893C271.124 399.153 279.645 426.498 279.645 426.498C297.271 408.462 327.692 419.042 327.692 419.042C327.692 419.042 308.958 388.018 320.02 352.627Z" stroke="white" stroke-linecap="round" stroke-linejoin="round"/>
<path d="M313.745 405.444C313.745 405.444 294.772 398.9 284.769 408.982C284.769 408.982 282.664 394.168 269.334 392.708C269.334 392.708 289.072 387.99 285.296 366.535C285.296 366.535 299.685 373.752 310.628 369.463C310.628 369.463 300.345 392.82 313.745 405.444Z" stroke="white" stroke-linecap="round" stroke-linejoin="round"/>
<path d="M303.252 395.559C303.252 395.559 296.667 392.484 290.701 396.1C290.701 396.1 290.104 389.276 284.798 389.641C284.798 389.641 291.993 386.432 290.996 377.937C290.996 377.937 298.907 383.056 303.469 379.292C303.469 379.292 300.212 388.644 303.252 395.559Z" stroke="white" stroke-linecap="round" stroke-linejoin="round"/>
<path d="M297.945 390.673C297.945 390.673 295.705 390.034 293.733 391.003C293.733 391.003 294.056 389.009 291.094 388.812C291.094 388.812 294.428 387.078 293.67 383.961C293.67 383.961 297.537 385.835 299.327 384.249C299.327 384.249 296.927 387.914 297.945 390.673Z" stroke="white" stroke-linecap="round" stroke-linejoin="round"/>
<path d="M261.508 331.131C261.508 331.131 267.875 381.413 225.64 410.183C257.17 410.057 275.729 451.107 275.729 451.107C298.317 421.136 351.797 444.465 351.797 444.465C351.797 444.465 319.558 379.594 326.689 331.306C326.689 331.306 298.479 351.399 261.515 331.138" stroke="white" stroke-linecap="round" stroke-linejoin="round"/>
</g>
</g>
</mask>
<g mask="url(#mask1_691_3509)">
<path d="M-33 16H360V410C360 432.091 342.091 450 320 450H7.00001C-15.0914 450 -33 432.091 -33 410V16Z" fill="white"/>
</g>
</g>
<defs>
<clipPath id="clip0_691_3509">
<rect width="223" height="209" fill="white" transform="translate(137 241)"/>
</clipPath>
</defs>
</svg>
