<svg width="214" height="213" viewBox="0 0 214 213" fill="none" xmlns="http://www.w3.org/2000/svg">
<g opacity="0.1">
<path d="M-12 183.424V-0.994171H185.515" stroke="white" stroke-linecap="round" stroke-linejoin="round"/>
<path d="M47.6849 206.543C37.528 136.428 -12 -0.994171 -12 -0.994171C-12 -0.994171 57.8418 108.493 168.578 168.442" stroke="white" stroke-linecap="round" stroke-linejoin="round"/>
<path d="M-12 -0.994171C-12 -0.994171 71.4873 54.6374 213.494 76.9911" stroke="white" stroke-linecap="round" stroke-linejoin="round"/>
<path d="M177.724 -0.994171C177.724 -0.994171 155.705 54.3426 196.178 74.0495C196.178 74.0495 145.077 94.3111 150.988 158.304C150.988 158.304 81.2371 142.332 45.158 191.716C45.158 191.716 21.2714 157.778 -12 174.543C-12 174.543 -5.33168 179.436 -8.37805 193.148C-11.4244 206.866 -3.99802 211.626 -3.99802 211.626" stroke="white" stroke-linecap="round" stroke-linejoin="round"/>
<path d="M-12 147.605C-12 147.605 7.75927 130.924 33.8148 143.582C33.8148 143.582 59.0702 104.161 102.646 124.107C102.646 124.107 99.8382 73.0245 142.08 62.0512C142.08 62.0512 116.6 30.7532 142.08 -0.994171" stroke="white" stroke-linecap="round" stroke-linejoin="round"/>
<path d="M-12 112.172C-12 112.172 2.85279 97.1685 23.8053 108.289C23.8053 108.289 34.2711 81.4142 65.0366 90.6955C65.0366 90.6955 56.2555 53.2895 96.6023 48.4382C96.6023 48.4382 73.2912 20.7277 100.744 -0.994171" stroke="white" stroke-linecap="round" stroke-linejoin="round"/>
<path d="M-12 78.5146C-12 78.5146 -3.12763 62.2618 13.3887 74.4497C13.3887 74.4497 20.8783 55.7467 37.8369 62.4303C37.8369 62.4303 36.8752 32.7681 62.7202 35.9555C62.7202 35.9555 45.6493 17.5474 61.1409 -0.994171" stroke="white" stroke-linecap="round" stroke-linejoin="round"/>
<path d="M-12 50.5725C-12 50.5725 -6.81977 42.6672 4.93752 48.3961C4.93752 48.3961 9.58429 37.8721 20.759 42.6953C20.759 42.6953 19.1937 25.2069 35.8504 24.4276C35.8504 24.4276 26.3463 10.6882 38.2861 -0.994171" stroke="white" stroke-linecap="round" stroke-linejoin="round"/>
<path d="M-12 32.0251C-12 32.0251 -7.61997 27.4546 -0.537517 32.0251C-0.537517 32.0251 2.25616 23.1369 7.89264 26.6262C7.89264 26.6262 5.73772 14.5788 18.4566 16.0601C18.4566 16.0601 9.45794 7.12988 20.1272 -1.00003" stroke="white" stroke-linecap="round" stroke-linejoin="round"/>
<path d="M-12 20.5955C-12 20.5955 -10.0557 16.2216 -4.99476 18.9807C-4.99476 18.9807 -4.45427 14.2418 0.0240273 16.2076C0.0240273 16.2076 -0.249729 9.40457 6.57301 9.85389C6.57301 9.85389 0.0591239 2.42604 7.296 -1.00003" stroke="white" stroke-linecap="round" stroke-linejoin="round"/>
<path d="M68.0689 93.616C68.0689 93.616 62.7272 54.6304 116.228 54.7287" stroke="white" stroke-linecap="round" stroke-linejoin="round"/>
<path d="M119.064 55.5859C119.064 55.5859 80.2685 74.7382 94.9598 117.782" stroke="white" stroke-linecap="round" stroke-linejoin="round"/>
<path d="M144.193 -0.994171C144.193 -0.994171 134.289 19.9625 141.02 37.9985" stroke="white" stroke-linecap="round" stroke-linejoin="round"/>
<path d="M178.987 -0.994171C178.987 -0.994171 176.004 7.70441 184.097 18.5022C192.191 29.2999 189.523 33.1121 189.523 33.8704" stroke="white" stroke-linecap="round" stroke-linejoin="round"/>
</g>
</svg>
