<svg width="151" height="160" viewBox="0 0 151 160" fill="none" xmlns="http://www.w3.org/2000/svg">
<g opacity="0.06">
<path d="M172.805 137.513V-2.99542H22.3175" stroke="black" stroke-linecap="round" stroke-linejoin="round"/>
<path d="M127.331 155.127C135.069 101.707 172.805 -2.99542 172.805 -2.99542C172.805 -2.99542 119.592 80.4228 35.2222 126.098" stroke="black" stroke-linecap="round" stroke-linejoin="round"/>
<path d="M172.805 -2.99542C172.805 -2.99542 109.196 39.3903 1.00036 56.4217" stroke="black" stroke-linecap="round" stroke-linejoin="round"/>
<path d="M28.2538 -2.99542C28.2538 -2.99542 45.0304 39.1657 14.1939 54.1804C14.1939 54.1804 53.1273 69.6177 48.6243 118.374C48.6243 118.374 101.767 106.205 129.256 143.83C129.256 143.83 147.455 117.973 172.805 130.747C172.805 130.747 167.724 134.475 170.045 144.921C172.366 155.373 166.708 159 166.708 159" stroke="black" stroke-linecap="round" stroke-linejoin="round"/>
<path d="M172.805 110.222C172.805 110.222 157.75 97.5129 137.898 107.157C137.898 107.157 118.656 77.1224 85.4559 92.319C85.4559 92.319 87.5951 53.3995 55.4109 45.0389C55.4109 45.0389 74.8241 21.1929 55.4109 -2.99542" stroke="black" stroke-linecap="round" stroke-linejoin="round"/>
<path d="M172.805 83.2257C172.805 83.2257 161.488 71.7948 145.525 80.2677C145.525 80.2677 137.551 59.7916 114.11 66.863C114.11 66.863 120.801 38.3633 90.0605 34.6671C90.0605 34.6671 107.821 13.5545 86.9052 -2.99542" stroke="black" stroke-linecap="round" stroke-linejoin="round"/>
<path d="M172.805 57.5824C172.805 57.5824 166.045 45.1994 153.461 54.4853C153.461 54.4853 147.755 40.2355 134.834 45.3278C134.834 45.3278 135.567 22.7281 115.875 25.1565C115.875 25.1565 128.882 11.1314 117.079 -2.99542" stroke="black" stroke-linecap="round" stroke-linejoin="round"/>
<path d="M172.805 36.2932C172.805 36.2932 168.858 30.2702 159.9 34.635C159.9 34.635 156.36 26.6168 147.846 30.2916C147.846 30.2916 149.038 16.9672 136.347 16.3734C136.347 16.3734 143.589 5.90537 134.492 -2.99542" stroke="black" stroke-linecap="round" stroke-linejoin="round"/>
<path d="M172.805 22.1619C172.805 22.1619 169.468 18.6796 164.071 22.1619C164.071 22.1619 161.943 15.39 157.648 18.0485C157.648 18.0485 159.29 8.86951 149.6 9.99816C149.6 9.99816 156.456 3.19418 148.327 -3" stroke="black" stroke-linecap="round" stroke-linejoin="round"/>
<path d="M111.8 69.0877C111.8 69.0877 115.87 39.3845 75.1073 39.4594" stroke="black" stroke-linecap="round" stroke-linejoin="round"/>
<path d="M72.9466 40.1153C72.9466 40.1153 102.505 54.7074 91.3116 87.5024" stroke="black" stroke-linecap="round" stroke-linejoin="round"/>
<path d="M53.8012 -2.99564C53.8012 -2.99564 61.3472 12.9712 56.2185 26.7129" stroke="black" stroke-linecap="round" stroke-linejoin="round"/>
<path d="M27.291 -2.99564C27.291 -2.99564 29.5639 3.63182 23.3976 11.8586C17.2314 20.0855 19.2636 22.99 19.2636 23.5677" stroke="black" stroke-linecap="round" stroke-linejoin="round"/>
</g>
</svg>
