<svg width="65" height="33" viewBox="0 0 65 33" fill="none" xmlns="http://www.w3.org/2000/svg">
<path d="M27.3139 0.00134277H28.263C29.3153 0.297961 30.1989 0.866219 30.942 1.65928C31.0075 1.72797 31.1574 1.76856 31.2511 1.74671C31.9973 1.58435 32.7404 1.57186 33.4929 1.703C33.5866 1.71861 33.7239 1.65616 33.7958 1.58435C34.5607 0.81314 35.4412 0.238637 36.5184 0.00134277H37.249C37.4488 0.0700333 37.6268 0.126235 37.6861 0.39163C38.0546 2.03396 37.8828 3.57325 36.8962 4.98141C36.8306 5.07508 36.7994 5.22183 36.8181 5.33423C36.9149 5.92122 37.018 6.50509 37.146 7.08584C37.1772 7.23259 37.2771 7.41056 37.3989 7.48237C38.8789 8.341 40.4775 8.8593 42.1854 8.97483C44.4522 9.12782 46.5066 8.49399 48.355 7.18263C50.0723 5.96493 51.368 4.36944 52.4609 2.59597C52.8012 2.04333 53.1165 1.47507 53.4506 0.903687C53.5599 0.972378 53.6442 1.01921 53.7191 1.07854C56.754 3.43899 59.3892 6.17725 61.5155 9.39322C62.9393 11.5476 64.0352 13.8487 64.5941 16.3809C64.769 17.1709 64.8657 17.9764 65 18.7726V20.2338C62.8175 19.2566 60.5414 18.5915 58.1871 18.1919C56.0765 17.8359 53.9627 17.736 51.8426 18.1232C49.0575 18.6321 46.8095 19.9747 45.2483 22.3789C45.0079 22.7504 44.7987 23.1438 44.6176 23.456C43.8652 22.9877 43.1658 22.4475 42.3821 22.0854C40.4338 21.1799 38.5697 21.3235 36.865 22.7254C35.8877 23.5279 35.1664 24.5301 34.5701 25.6229C33.6115 27.3777 32.9465 29.251 32.4344 31.1775C32.3626 31.4554 32.2752 31.727 32.1753 32.0798C32.116 31.9112 32.0816 31.8332 32.0598 31.752C31.582 30.1065 31.0575 28.4798 30.3081 26.9343C29.6806 25.6385 28.9531 24.4083 27.9133 23.3874C26.1305 21.6357 23.87 21.3298 21.7125 22.588C21.1192 22.9346 20.5791 23.3624 20.0077 23.7589C19.9921 23.7246 19.9546 23.6465 19.9203 23.5716C19.3551 22.3164 18.6089 21.1893 17.5723 20.2682C15.6052 18.5166 13.2354 17.864 10.6689 17.761C9.02032 17.6954 7.3936 17.8671 5.77937 18.195C3.79047 18.6009 1.85152 19.166 0 20.0153V19.7967C0.0187338 19.7686 0.0468345 19.7436 0.0530791 19.7124C0.455856 17.1771 1.26765 14.7698 2.3667 12.4593C4.1027 8.80935 6.43506 5.56528 9.20453 2.63032C9.7603 2.04333 10.3473 1.48443 10.9437 0.884953C11.0748 1.06917 11.1685 1.20967 11.2684 1.34393C11.9584 2.26813 12.6172 3.21731 13.3509 4.10716C14.6873 5.73388 16.2266 7.14204 18.1093 8.12244C21.3409 9.80536 24.4726 9.65861 27.4793 7.56667C27.6355 7.46051 27.7447 7.23259 27.7947 7.039C27.9071 6.605 27.9477 6.15539 28.0538 5.72139C28.1101 5.49346 28.0663 5.3436 27.9258 5.16562C26.8112 3.74498 26.5739 2.14012 26.9985 0.419731C27.036 0.263616 27.2046 0.141846 27.3139 0.00134277Z" fill="black"/>
</svg>
