<svg width="156" height="160" viewBox="0 0 156 160" fill="none" xmlns="http://www.w3.org/2000/svg">
<g opacity="0.06">
<path d="M-17 137.513V-2.99542H133.487" stroke="black" stroke-linecap="round" stroke-linejoin="round"/>
<path d="M28.474 155.127C20.7354 101.707 -17 -2.99542 -17 -2.99542C-17 -2.99542 36.2125 80.4228 120.582 126.098" stroke="black" stroke-linecap="round" stroke-linejoin="round"/>
<path d="M-17 -2.99542C-17 -2.99542 46.609 39.3903 154.804 56.4217" stroke="black" stroke-linecap="round" stroke-linejoin="round"/>
<path d="M127.551 -2.99542C127.551 -2.99542 110.774 39.1657 141.611 54.1804C141.611 54.1804 102.677 69.6177 107.18 118.374C107.18 118.374 54.0374 106.205 26.5487 143.83C26.5487 143.83 8.34948 117.973 -17 130.747C-17 130.747 -11.9194 134.475 -14.2404 144.921C-16.5615 155.373 -10.9033 159 -10.9033 159" stroke="black" stroke-linecap="round" stroke-linejoin="round"/>
<path d="M-17 110.222C-17 110.222 -1.94542 97.5129 17.9063 107.157C17.9063 107.157 37.1484 77.1224 70.3488 92.319C70.3488 92.319 68.2096 53.3995 100.394 45.0389C100.394 45.0389 80.9806 21.1929 100.394 -2.99542" stroke="black" stroke-linecap="round" stroke-linejoin="round"/>
<path d="M-17 83.2257C-17 83.2257 -5.68366 71.7948 10.2801 80.2677C10.2801 80.2677 18.254 59.7916 41.6942 66.863C41.6942 66.863 35.0039 38.3633 65.7441 34.6671C65.7441 34.6671 47.9835 13.5545 68.8995 -2.99542" stroke="black" stroke-linecap="round" stroke-linejoin="round"/>
<path d="M-17 57.5824C-17 57.5824 -10.2401 45.1994 2.34368 54.4853C2.34368 54.4853 8.04999 40.2355 20.9707 45.3278C20.9707 45.3278 20.2381 22.7281 39.9294 25.1565C39.9294 25.1565 26.9231 11.1314 38.7261 -2.99542" stroke="black" stroke-linecap="round" stroke-linejoin="round"/>
<path d="M-17 36.2932C-17 36.2932 -13.0532 30.2702 -4.0953 34.635C-4.0953 34.635 -0.554931 26.6168 7.95908 30.2916C7.95908 30.2916 6.76647 16.9672 19.4573 16.3734C19.4573 16.3734 12.2161 5.90537 21.313 -2.99542" stroke="black" stroke-linecap="round" stroke-linejoin="round"/>
<path d="M-17 22.1619C-17 22.1619 -13.6629 18.6796 -8.26674 22.1619C-8.26674 22.1619 -6.13824 15.39 -1.8438 18.0485C-1.8438 18.0485 -3.48564 8.86951 6.20493 9.99816C6.20493 9.99816 -0.651195 3.19418 7.47776 -3" stroke="black" stroke-linecap="round" stroke-linejoin="round"/>
<path d="M44.0048 69.0877C44.0048 69.0877 39.9349 39.3845 80.6973 39.4594" stroke="black" stroke-linecap="round" stroke-linejoin="round"/>
<path d="M82.8581 40.1153C82.8581 40.1153 53.2997 54.7074 64.4931 87.5024" stroke="black" stroke-linecap="round" stroke-linejoin="round"/>
<path d="M102.003 -2.99564C102.003 -2.99564 94.4574 12.9712 99.5862 26.7129" stroke="black" stroke-linecap="round" stroke-linejoin="round"/>
<path d="M128.514 -2.99564C128.514 -2.99564 126.241 3.63182 132.407 11.8586C138.573 20.0855 136.541 22.99 136.541 23.5677" stroke="black" stroke-linecap="round" stroke-linejoin="round"/>
</g>
</svg>
