<svg width="32" height="32" viewBox="0 0 32 32" fill="none" xmlns="http://www.w3.org/2000/svg">
<path d="M16 20.6667C18.9467 20.6667 21.3333 18.28 21.3333 15.3333V8.00001C21.3333 5.05334 18.9467 2.66667 16 2.66667C13.0533 2.66667 10.6667 5.05334 10.6667 8.00001V15.3333C10.6667 18.28 13.0533 20.6667 16 20.6667Z" stroke="white" stroke-width="1.5" stroke-linecap="round" stroke-linejoin="round"/>
<path d="M5.79999 12.8667V15.1333C5.79999 20.76 10.3733 25.3333 16 25.3333C21.6267 25.3333 26.2 20.76 26.2 15.1333V12.8667" stroke="white" stroke-width="1.5" stroke-linecap="round" stroke-linejoin="round"/>
<path d="M14.1467 8.57333C15.3467 8.13333 16.6533 8.13333 17.8533 8.57333" stroke="white" stroke-width="1.5" stroke-linecap="round" stroke-linejoin="round"/>
<path d="M14.9333 11.4C15.64 11.2133 16.3733 11.2133 17.08 11.4" stroke="white" stroke-width="1.5" stroke-linecap="round" stroke-linejoin="round"/>
<path d="M16 25.3333V29.3333" stroke="white" stroke-width="1.5" stroke-linecap="round" stroke-linejoin="round"/>
</svg>
