<svg width="24" height="24" viewBox="0 0 24 24" fill="none" xmlns="http://www.w3.org/2000/svg">
<g clip-path="url(#clip0_342_3249)">
<path d="M12 13.5779C12.5143 13.5779 12.9312 13.1609 12.9312 12.6467C12.9312 12.1324 12.5143 11.7155 12 11.7155C11.4857 11.7155 11.0688 12.1324 11.0688 12.6467C11.0688 13.1609 11.4857 13.5779 12 13.5779Z" fill="black"/>
<path d="M12 8.72012C11.4878 8.72012 11.0688 8.30109 11.0688 7.78893C11.0688 7.27677 11.4878 6.85773 12 6.85773C12.5121 6.85773 12.9312 7.27677 12.9312 7.78893C12.9312 8.30109 12.5121 8.72012 12 8.72012Z" fill="black"/>
<path d="M12 3.86239C12.5143 3.86239 12.9312 3.44548 12.9312 2.93119C12.9312 2.41691 12.5143 2 12 2C11.4857 2 11.0688 2.41691 11.0688 2.93119C11.0688 3.44548 11.4857 3.86239 12 3.86239Z" fill="black"/>
<path d="M6.82152 19.4547C6.70253 19.4547 6.58355 19.434 6.47491 19.3875C3.67098 18.27 2 16.3559 2 14.2659C2 11.9741 3.93482 9.96689 7.17331 8.89084C7.26643 8.8598 7.36472 8.84428 7.46301 8.84428C7.86653 8.84428 8.21831 9.10295 8.34765 9.4806C8.42525 9.71857 8.40455 9.96689 8.29591 10.1893C8.1821 10.4118 7.99069 10.5773 7.75789 10.6549C5.3523 11.4516 3.85722 12.8329 3.85722 14.2607C3.85722 15.5437 5.12985 16.8422 7.17331 17.6493C7.64925 17.8407 7.87688 18.3839 7.68546 18.8598C7.54061 19.2168 7.20435 19.4444 6.82152 19.4444V19.4547Z" fill="black"/>
<path d="M14.1624 22.3207C14.0641 22.3207 13.971 22.2845 13.8986 22.2173L11.3895 19.8789C11.3895 19.8789 11.3533 19.8427 11.3378 19.8272C11.1516 19.6255 11.0533 19.3668 11.0636 19.0926C11.074 18.8184 11.1878 18.5649 11.3895 18.3787L13.8986 16.0404C13.971 15.9731 14.0641 15.9369 14.1572 15.9369C14.3693 15.9369 14.5452 16.1076 14.5452 16.3197V18.3063L14.9901 18.2131C18.0217 17.5665 20.1376 15.9421 20.1376 14.2659C20.1376 12.8329 18.6425 11.4516 16.2421 10.6601C16.0041 10.5825 15.8127 10.417 15.7041 10.1945C15.5903 9.97206 15.5747 9.71857 15.6523 9.48577C15.7765 9.10295 16.1334 8.84946 16.537 8.84946C16.6353 8.84946 16.7336 8.86498 16.8267 8.89602C20.0652 9.96689 22 11.9741 22 14.2659C22 17.0181 19.1288 19.372 14.8505 20.1324L14.5504 20.1842V21.9327C14.5504 22.031 14.5142 22.1242 14.4469 22.1966C14.3745 22.2742 14.2711 22.3207 14.1624 22.3207Z" fill="black"/>
</g>
<defs>
<clipPath id="clip0_342_3249">
<rect width="20" height="20.3207" fill="white" transform="translate(2 2)"/>
</clipPath>
</defs>
</svg>
