<svg width="16" height="16" viewBox="0 0 16 16" fill="none" xmlns="http://www.w3.org/2000/svg">
<g clip-path="url(#clip0_342_3070)">
<path d="M2 8.72178C2 8.6706 2 8.64501 2.00141 8.62341C2.02313 8.2893 2.2893 8.02313 2.62341 8.00141C2.64501 8 2.6706 8 2.72178 8H13.2782C13.3294 8 13.355 8 13.3766 8.00141C13.7107 8.02313 13.9769 8.2893 13.9986 8.62341C14 8.64501 14 8.6706 14 8.72178C14 8.98557 14 9.11746 13.9906 9.2651C13.8515 11.457 11.9886 13.3911 9.80355 13.6124C9.65636 13.6273 9.5705 13.6306 9.39878 13.637C8.90936 13.6554 8.43288 13.6667 8 13.6667C7.56712 13.6667 7.09064 13.6554 6.60122 13.637C6.4295 13.6306 6.34364 13.6273 6.19645 13.6124C4.01136 13.3911 2.14848 11.457 2.00937 9.2651C2 9.11746 2 8.98557 2 8.72178Z" stroke="#200F35" stroke-width="1.2"/>
<path d="M4.00001 13.3333L3.33334 14.6667" stroke="#200F35" stroke-width="1.2" stroke-linecap="round"/>
<path d="M12 13.3333L12.6667 14.6667" stroke="#200F35" stroke-width="1.2" stroke-linecap="round"/>
<path d="M1.33334 8H14.6667" stroke="#200F35" stroke-width="1.2" stroke-linecap="round"/>
<path d="M1.4 8.66666C1.4 8.99803 1.66863 9.26666 2 9.26666C2.33137 9.26666 2.6 8.99803 2.6 8.66666H1.4ZM5.06649 2.33289L5.62358 2.11005V2.11005L5.06649 2.33289ZM5.31924 2.96475L5.58186 3.50422L5.31924 2.96475ZM4.24141 4.12821L4.79732 4.35396L4.24141 4.12821ZM7.05134 2.91855L6.81562 3.47031L7.05134 2.91855ZM4.23039 5.8277L3.67216 6.04766C3.73169 6.19873 3.8499 6.31922 3.9998 6.38162C4.14971 6.44403 4.3185 6.44301 4.46764 6.37881L4.23039 5.8277ZM8.20423 4.11698L8.44148 4.66809C8.73916 4.53994 8.88127 4.19855 8.76246 3.89702L8.20423 4.11698ZM2.6 8.66666V2.92344H1.4V8.66666H2.6ZM3.59011 1.93333C3.99497 1.93333 4.35904 2.17982 4.5094 2.55572L5.62358 2.11005C5.29098 1.27856 4.48566 0.733328 3.59011 0.733328V1.93333ZM2.6 2.92344C2.6 2.37662 3.04329 1.93333 3.59011 1.93333V0.733328C2.38055 0.733328 1.4 1.71387 1.4 2.92344H2.6ZM4.5094 2.55572L4.76215 3.18759L5.87632 2.74192L5.62358 2.11005L4.5094 2.55572ZM4.78862 5.60774C4.63659 5.22191 4.62689 4.77366 4.79732 4.35396L3.6855 3.90246C3.39532 4.61704 3.41092 5.38465 3.67216 6.04766L4.78862 5.60774ZM7.96698 3.56588L3.99314 5.2766L4.46764 6.37881L8.44148 4.66809L7.96698 3.56588ZM6.81562 3.47031C7.20375 3.63612 7.49409 3.95141 7.646 4.33694L8.76246 3.89702C8.50109 3.23371 7.99018 2.66718 7.28706 2.36679L6.81562 3.47031ZM4.79732 4.35396C4.95737 3.95986 5.24451 3.66845 5.58186 3.50422L5.05661 2.42528C4.45659 2.71738 3.95844 3.23034 3.6855 3.90246L4.79732 4.35396ZM5.58186 3.50422C5.96207 3.31913 6.40545 3.29508 6.81562 3.47031L7.28706 2.36679C6.54049 2.04785 5.73344 2.09579 5.05661 2.42528L5.58186 3.50422Z" fill="#200F35"/>
</g>
<defs>
<clipPath id="clip0_342_3070">
<rect width="16" height="16" fill="white"/>
</clipPath>
</defs>
</svg>
