<svg width="16" height="16" viewBox="0 0 16 16" fill="none" xmlns="http://www.w3.org/2000/svg">
<path d="M12.6666 13.6665V12.6665M3.33325 13.6665V12.6665" stroke="#200F35" stroke-width="1.2" stroke-linecap="round"/>
<path d="M1.33325 10.3333C1.33325 9.712 1.33325 9.40137 1.43475 9.15634C1.57007 8.82964 1.82964 8.57007 2.15634 8.43475C2.40137 8.33325 2.712 8.33325 3.33325 8.33325H12.6666C13.2878 8.33325 13.5985 8.33325 13.8435 8.43475C14.1702 8.57007 14.4298 8.82964 14.5651 9.15634C14.6666 9.40137 14.6666 9.712 14.6666 10.3333C14.6666 10.9545 14.6666 11.2651 14.5651 11.5102C14.4298 11.8369 14.1702 12.0964 13.8435 12.2318C13.5985 12.3333 13.2878 12.3333 12.6666 12.3333H3.33325C2.712 12.3333 2.40137 12.3333 2.15634 12.2318C1.82964 12.0964 1.57007 11.8369 1.43475 11.5102C1.33325 11.2651 1.33325 10.9545 1.33325 10.3333Z" stroke="#200F35" stroke-width="1.2"/>
<path d="M14 8.33333C14 5.81918 14 4.5621 13.219 3.78105C12.4379 3 11.1808 3 8.66667 3H7.33333C4.81918 3 3.5621 3 2.78105 3.78105C2 4.5621 2 5.81918 2 8.33333" stroke="#200F35" stroke-width="1.2"/>
<path d="M12.3334 8.33317V7.33317C12.3334 6.07609 12.3334 5.44755 11.9429 5.05703C11.5524 4.6665 10.9238 4.6665 9.66675 4.6665H6.33341C5.07634 4.6665 4.4478 4.6665 4.05727 5.05703C3.66675 5.44755 3.66675 6.07609 3.66675 7.33317V8.33317" stroke="#200F35" stroke-width="1.2"/>
<path d="M8 5V8.33333" stroke="#200F35" stroke-width="1.2"/>
</svg>
