<svg width="16" height="16" viewBox="0 0 16 16" fill="none" xmlns="http://www.w3.org/2000/svg">
    <g filter="url(#filter0_d_342_3240)" transform="translate(-3.9)" stroke="#fff"
        stroke-width="1.2">
        <path
            d="M7.704 12h8.592a2.37 2.37 0 0 0 2.37-2.37V8A1.333 1.333 0 1 0 16 8v.8a.533.533 0 0 1-.533.533H8.533A.533.533 0 0 1 8 8.8V8a1.333 1.333 0 1 0-2.667 0v1.63A2.37 2.37 0 0 0 7.703 12Z" />
        <path
            d="M17.333 6.667c0-.62 0-.93-.05-1.187a2.67 2.67 0 0 0-2.096-2.095c-.258-.052-.567-.052-1.187-.052h-4c-.62 0-.93 0-1.187.052A2.67 2.67 0 0 0 6.718 5.48c-.051.257-.051.567-.051 1.187M12 3.333v6" />
        <path d="M17.333 12.667V12m-10.666.667V12" stroke-linecap="round" />
    </g>
</svg>