<svg xmlns="http://www.w3.org/2000/svg" width="112" height="32" fill="none" viewBox="0 0 112 32">
  <path fill="url(#a)" fill-rule="evenodd" d="M22.36 5h5.184v22.4H22.36v-9.184h-2.016v-4.384h2.016V5Zm-8.016 8.832v4.384h-2.16V27.4H7V5h5.184v8.832h2.16Zm26.34 13.824c-5.472 0-9.472-3.68-9.472-8.864 0-5.184 4-8.864 9.472-8.864 5.472 0 9.44 3.68 9.44 8.864 0 5.184-3.968 8.864-9.44 8.864Zm0-4.096c2.496 0 4.384-1.792 4.384-4.768s-1.888-4.768-4.384-4.768c-2.496 0-4.416 1.792-4.416 4.768s1.92 4.768 4.416 4.768Zm41.864-6.016c0-5.248-2.944-7.616-7.04-7.616-2.591 0-4.832 1.056-6.208 2.816-1.216-1.888-3.264-2.816-5.664-2.816-2.208 0-4.128.768-5.408 2.24v-1.984H53.46V27.4h4.992v-8.64c0-3.072 1.568-4.512 3.776-4.512 2.08 0 3.264 1.28 3.264 4.064V27.4h4.992v-8.64c0-3.072 1.569-4.512 3.808-4.512 2.016 0 3.264 1.28 3.264 4.064V27.4h4.992v-9.856Zm21.464 2.267c.03-.33.062-.683.062-.955 0-5.536-3.904-8.928-8.96-8.928-5.248 0-9.184 3.712-9.184 8.864 0 5.12 3.872 8.864 9.824 8.864 3.104 0 5.504-.96 7.104-2.784l-2.656-2.88c-1.184 1.12-2.496 1.664-4.32 1.664-2.624 0-4.448-1.312-4.928-3.456h13.024l.034-.39ZM90.89 17.288c.352-2.208 1.984-3.584 4.256-3.584 2.24 0 3.872 1.408 4.224 3.584h-8.48ZM15.344 20.4h4v4h-4v-4Zm4-13h-4v4h4v-4Z" clip-rule="evenodd"/>
  <defs>
    <linearGradient id="a" x1="55.537" x2="55.537" y1="5" y2="36" gradientUnits="userSpaceOnUse">
      <stop/>
      <stop offset="1" stop-opacity="0"/>
    </linearGradient>
  </defs>
</svg>
