<svg width="20" height="20" viewBox="0 0 20 20" fill="none" xmlns="http://www.w3.org/2000/svg">
<path d="M12.5001 2.18747C12.5001 3.15861 12.6791 4.05379 13.0372 4.87302C13.3953 5.69225 13.9107 6.44637 14.5834 7.13539C15.2562 7.82441 15.7716 8.57853 16.1296 9.39776C16.4877 10.217 16.6667 11.1122 16.6667 12.0833C16.6667 12.6584 16.5935 13.2118 16.447 13.7435C16.3005 14.2751 16.0889 14.7716 15.8123 15.2327C15.5356 15.6939 15.21 16.1171 14.8357 16.5023C14.4613 16.8875 14.0409 17.213 13.5743 17.4788C13.1077 17.7447 12.6086 17.9535 12.0769 18.1054C11.5452 18.2574 10.9918 18.3333 10.4167 18.3333C9.84166 18.3333 9.28828 18.2601 8.75659 18.1136C8.22491 17.9671 7.72849 17.7555 7.26733 17.4788C6.80618 17.2021 6.383 16.8766 5.9978 16.5023C5.6126 16.1279 5.28708 15.7074 5.02124 15.2409C4.7554 14.7743 4.54652 14.2751 4.39461 13.7435C4.2427 13.2118 4.16675 12.6584 4.16675 12.0833C4.16675 11.6276 4.21558 11.18 4.31323 10.7405C4.41089 10.3011 4.55195 9.88062 4.73641 9.47914C4.92087 9.07767 5.14874 8.69518 5.42 8.33168C5.69127 7.96818 5.9978 7.63995 6.3396 7.34698C6.37758 7.55314 6.42912 7.76473 6.49422 7.98175C6.55933 8.19876 6.63528 8.41577 6.72209 8.63279C6.80889 8.8498 6.91197 9.05596 7.03133 9.25128C7.15069 9.44659 7.27547 9.62834 7.40568 9.79652C7.51419 9.93216 7.65525 9.99997 7.82886 9.99997C7.97534 9.99997 8.09741 9.94843 8.19507 9.84535C8.29272 9.74227 8.34427 9.61749 8.34969 9.471C8.34969 9.41132 8.34155 9.35707 8.32528 9.30824C8.309 9.25941 8.28187 9.21059 8.2439 9.16176C8.09199 8.93932 7.95907 8.71959 7.84513 8.50258C7.7312 8.28556 7.63083 8.06313 7.54403 7.83526C7.45722 7.6074 7.39483 7.37139 7.35685 7.12725C7.31887 6.88311 7.29717 6.62541 7.29175 6.35414C7.29175 5.70852 7.41382 5.10089 7.65796 4.53122C7.9021 3.96156 8.23847 3.46514 8.66707 3.04197C9.09568 2.61879 9.5921 2.28513 10.1563 2.04099C10.7206 1.79685 11.3282 1.67207 11.9792 1.66664H12.5001V2.18747ZM10.4167 17.2916C11.1383 17.2916 11.8138 17.156 12.4431 16.8847C13.0725 16.6135 13.6258 16.2418 14.1033 15.7698C14.5807 15.2978 14.9523 14.7472 15.2182 14.1178C15.484 13.4885 15.6197 12.8103 15.6251 12.0833C15.6251 11.2641 15.4732 10.5018 15.1694 9.79652C14.8655 9.09123 14.4261 8.45104 13.851 7.87595C13.1457 7.16523 12.5923 6.38127 12.1908 5.52406C11.7894 4.66686 11.5506 3.73912 11.4747 2.74086C11.0244 2.80054 10.6093 2.93617 10.2296 3.14776C9.8498 3.35935 9.51614 3.6279 9.2286 3.95343C8.94105 4.27895 8.72133 4.64516 8.56942 5.05206C8.41751 5.45896 8.33884 5.89299 8.33341 6.35414C8.33341 6.77732 8.39581 7.15981 8.52059 7.5016C8.64537 7.8434 8.82983 8.1852 9.07397 8.52699C9.17706 8.66805 9.25572 8.81454 9.30998 8.96645C9.36423 9.11836 9.39407 9.28654 9.3995 9.471C9.3995 9.68802 9.35881 9.89147 9.27742 10.0814C9.19604 10.2712 9.08211 10.4367 8.93563 10.5778C8.78914 10.7188 8.62367 10.8328 8.43921 10.9196C8.25475 11.0064 8.0513 11.0471 7.82886 11.0416C7.57929 11.0416 7.35956 10.9955 7.16968 10.9033C6.97979 10.8111 6.8116 10.6863 6.66512 10.5289C6.51864 10.3716 6.38843 10.1953 6.2745 9.99997C6.16056 9.80466 6.05206 9.60935 5.94897 9.41404C5.69941 9.81009 5.51495 10.236 5.39559 10.6917C5.27623 11.1474 5.21384 11.6113 5.20841 12.0833C5.20841 12.8049 5.34405 13.4803 5.61532 14.1097C5.88658 14.739 6.25822 15.2924 6.73022 15.7698C7.20223 16.2473 7.7529 16.6189 8.38224 16.8847C9.01158 17.1506 9.68975 17.2862 10.4167 17.2916Z" fill="white"/>
</svg>
