<svg width="20" height="20" viewBox="0 0 20 20" fill="none" xmlns="http://www.w3.org/2000/svg">
<path d="M13.5518 6.80952C13.5518 6.80952 12.8391 8.2381 12.1265 8.95238C12.364 6.09524 11.1763 5.14286 10.9387 3C10.9387 3 8.08814 3.95238 7.61304 8C7.13794 7.04762 6.4633 6.57143 5.85043 6.33333C5.85043 6.33333 5.78629 7.70952 5.4751 8.95238C5.23755 9.90476 5 10.381 5 11.5714C5 14.2024 7.12606 16.3333 9.75098 16.3333C12.3759 16.3333 14.502 14.2024 14.502 11.5714C14.502 9.90476 13.7893 8.95238 13.5518 6.80952ZM9.75098 15.8571C8.34469 15.8571 7.20683 14.7143 7.20683 13.3071C7.20683 12.4143 7.37549 11.5714 7.85059 10.619C7.85059 10.619 8.22354 11.5214 8.606 11.9024C8.35182 10.3714 9.24263 9.8619 9.36853 8.71429C9.36853 8.71429 10.9387 9.90476 10.7012 11.8095C10.9554 11.1714 11.5136 10.6286 11.8414 10.5C11.8414 10.5 11.8747 11.2357 12.041 11.9024C12.1692 12.4143 12.2951 12.669 12.2951 13.3071C12.2951 14.7143 11.1573 15.8571 9.75098 15.8571Z" fill="white"/>
</svg>
