<svg width="24" height="24" viewBox="0 0 24 24" fill="none" xmlns="http://www.w3.org/2000/svg">
<path d="M17.4601 7.92037C18.8187 7.92037 19.9201 6.81899 19.9201 5.46037C19.9201 4.10175 18.8187 3.00037 17.4601 3.00037C16.1015 3.00037 15.0001 4.10175 15.0001 5.46037C15.0001 6.81899 16.1015 7.92037 17.4601 7.92037Z" fill="white"/>
<path d="M6.46013 8.31001C7.81875 8.31001 8.92012 7.20863 8.92012 5.85001C8.92012 4.49139 7.81875 3.39001 6.46013 3.39001C5.10151 3.39001 4.00012 4.49139 4.00012 5.85001C4.00012 7.20863 5.10151 8.31001 6.46013 8.31001Z" fill="white"/>
<path d="M17.5401 20.61C18.8987 20.61 20.0001 19.5086 20.0001 18.15C20.0001 16.7914 18.8987 15.69 17.5401 15.69C16.1814 15.69 15.0801 16.7914 15.0801 18.15C15.0801 19.5086 16.1814 20.61 17.5401 20.61Z" fill="white"/>
<path d="M6.46013 20.61C7.81875 20.61 8.92012 19.5086 8.92012 18.15C8.92012 16.7914 7.81875 15.69 6.46013 15.69C5.10151 15.69 4.00012 16.7914 4.00012 18.15C4.00012 19.5086 5.10151 20.61 6.46013 20.61Z" fill="white"/>
</svg>
